<svg xmlns="http://www.w3.org/2000/svg" width="328" height="258" fill="none" viewBox="0 0 328 258"><g clip-path="url(#a)"><path fill="#FDE" fill-opacity=".56" d="M32-75h40V41H32V-75Z"/><path stroke="#F6C" d="m52 41 7-7.06M51.75-75 52 41l-.25-116ZM52 41l-7-7.06L52 41Z"/><path fill="#FDE" fill-opacity=".28" d="M237 210h58v116h-58V210Z"/><path fill="#CEF" d="M140 228h40v116h-40V228Z"/><path stroke="#39F" d="m180 239-5 5m-35-5h40-40Zm0 0 5-5-5 5Zm0 0 5 5-5-5Zm40 0-5-5 5 5Z"/><path fill="#FDE" fill-opacity=".56" d="M189 228h40v20h-40v-20Z"/><path stroke="#F6C" stroke-dasharray="2 2" d="M81.184-92h99.379V33.014H81.184V-92ZM189.096 27.491H295v31.63H189.096v-31.63ZM33 211.986h99.379V337H33V211.986Z"/><path fill="#CEF" d="M189-18h106v37H189v-37Z"/><path stroke="#F6C" stroke-dasharray="2 2" d="m195 53 25-26m-25 13.883V53 40.883ZM195 53h11.65H195Z"/></g><defs><clipPath id="a"><path fill="#fff" d="M0 0h328v258H0z"/></clipPath></defs></svg>